<svg width="14" height="12" viewBox="0 0 14 12" fill="none" xmlns="http://www.w3.org/2000/svg">
<path d="M1.03205 4.34612L0.516025 4.88453L0 4.34612L0.516025 3.80771L1.03205 4.34612ZM13.44 10.4385C13.44 10.6404 13.3631 10.8341 13.2262 10.9769C13.0893 11.1198 12.9037 11.2 12.7101 11.2C12.5165 11.2 12.3309 11.1198 12.194 10.9769C12.0571 10.8341 11.9802 10.6404 11.9802 10.4385H13.44ZM4.16542 8.69224L0.516025 4.88453L1.54807 3.80771L5.19747 7.61542L4.16542 8.69224ZM0.516025 3.80771L4.16542 0L5.19747 1.07682L1.54807 4.88453L0.516025 3.80771ZM1.03205 3.58458H8.33084V5.10766H1.03205V3.58458ZM13.44 8.91537V10.4385H11.9802V8.91537H13.44ZM8.33084 3.58458C9.68588 3.58458 10.9854 4.14621 11.9436 5.14593C12.9017 6.14565 13.44 7.50156 13.44 8.91537H11.9802C11.9802 7.90551 11.5958 6.937 10.9114 6.22292C10.227 5.50883 9.29872 5.10766 8.33084 5.10766V3.58458Z" fill="black"/>
</svg>
