<svg width="21" height="18" viewBox="0 0 21 18" fill="none" xmlns="http://www.w3.org/2000/svg">
<path fill-rule="evenodd" clip-rule="evenodd" d="M5.412 5.68247e-08C4.77029 -0.000124804 4.14544 0.205521 3.62924 0.586737C3.11303 0.967953 2.73266 1.50465 2.544 2.118L0.133 9.956C0.0449636 10.2417 0.000134855 10.539 0 10.838V15C0 15.7956 0.316071 16.5587 0.87868 17.1213C1.44129 17.6839 2.20435 18 3 18H18C18.7956 18 19.5587 17.6839 20.1213 17.1213C20.6839 16.5587 21 15.7956 21 15V10.838C21 10.539 20.955 10.242 20.867 9.956L18.456 2.118C18.2673 1.50465 17.887 0.967953 17.3708 0.586737C16.8546 0.205521 16.2297 -0.000124804 15.588 5.68247e-08H5.412ZM19.235 9.75L17.022 2.559C16.9277 2.25232 16.7375 1.98398 16.4794 1.79337C16.2213 1.60276 15.9089 1.49994 15.588 1.5H5.412C5.09114 1.49994 4.77872 1.60276 4.52062 1.79337C4.26252 1.98398 4.07233 2.25232 3.978 2.559L1.765 9.75H4.61C5.16722 9.74983 5.71348 9.90486 6.18754 10.1977C6.6616 10.4906 7.04474 10.9096 7.294 11.408L7.55 11.921C7.67463 12.1702 7.8662 12.3797 8.10323 12.5261C8.34026 12.6726 8.61339 12.7501 8.892 12.75H12.11C12.3887 12.75 12.6619 12.6723 12.899 12.5257C13.136 12.3791 13.3275 12.1694 13.452 11.92L13.708 11.408C13.9573 10.9096 14.3404 10.4906 14.8145 10.1977C15.2885 9.90486 15.8348 9.74983 16.392 9.75H19.235Z" fill="white"/>
</svg>
