<svg width="17" height="15" viewBox="0 0 17 15" fill="none" xmlns="http://www.w3.org/2000/svg">
<path d="M5.1 15C4.6325 15 4.23243 14.8369 3.8998 14.5108C3.56717 14.1847 3.40057 13.7922 3.4 13.3333V11.6667H1.7C1.2325 11.6667 0.832433 11.5036 0.4998 11.1775C0.167167 10.8514 0.000566667 10.4589 0 10V6.66667C0 5.95833 0.247917 5.36472 0.74375 4.88583C1.23958 4.40694 1.84167 4.16722 2.55 4.16667H14.45C15.1725 4.16667 15.7783 4.40639 16.2673 4.88583C16.7563 5.36528 17.0006 5.95889 17 6.66667V10C17 10.4583 16.8337 10.8508 16.501 11.1775C16.1684 11.5042 15.7681 11.6672 15.3 11.6667H13.6V13.3333C13.6 13.7917 13.4337 14.1842 13.101 14.5108C12.7684 14.8375 12.3681 15.0006 11.9 15H5.1ZM13.6 3.33333H3.4V1.66667C3.4 1.20833 3.5666 0.816111 3.8998 0.49C4.233 0.163889 4.63307 0.000555556 5.1 0H11.9C12.3675 0 12.7678 0.163333 13.101 0.49C13.4342 0.816667 13.6006 1.20889 13.6 1.66667V3.33333ZM13.6 7.91667C13.8408 7.91667 14.0428 7.83667 14.206 7.67667C14.3692 7.51667 14.4506 7.31889 14.45 7.08333C14.4494 6.84778 14.3678 6.65 14.2052 6.49C14.0426 6.33 13.8408 6.25 13.6 6.25C13.3592 6.25 13.1574 6.33 12.9948 6.49C12.8322 6.65 12.7506 6.84778 12.75 7.08333C12.7494 7.31889 12.831 7.51694 12.9948 7.6775C13.1586 7.83806 13.3603 7.91778 13.6 7.91667ZM5.1 13.3333H11.9V10H5.1V13.3333Z" fill="white"/>
</svg>
