<svg width="16" height="14" viewBox="0 0 16 14" fill="none" xmlns="http://www.w3.org/2000/svg">
<path fill-rule="evenodd" clip-rule="evenodd" d="M8.00017 3.72095C7.26003 3.72095 6.55021 4.01497 6.02685 4.53832C5.50349 5.06168 5.20947 5.77151 5.20947 6.51164C5.20947 7.25178 5.50349 7.96161 6.02685 8.48497C6.55021 9.00832 7.26003 9.30234 8.00017 9.30234C8.74031 9.30234 9.45013 9.00832 9.97349 8.48497C10.4968 7.96161 10.7909 7.25178 10.7909 6.51164C10.7909 5.77151 10.4968 5.06168 9.97349 4.53832C9.45013 4.01497 8.74031 3.72095 8.00017 3.72095ZM6.32575 6.51164C6.32575 6.06756 6.50216 5.64167 6.81618 5.32765C7.13019 5.01364 7.55609 4.83723 8.00017 4.83723C8.44425 4.83723 8.87015 5.01364 9.18416 5.32765C9.49818 5.64167 9.67459 6.06756 9.67459 6.51164C9.67459 6.95573 9.49818 7.38162 9.18416 7.69564C8.87015 8.00965 8.44425 8.18606 8.00017 8.18606C7.55609 8.18606 7.13019 8.00965 6.81618 7.69564C6.50216 7.38162 6.32575 6.95573 6.32575 6.51164Z" fill="black"/>
<path fill-rule="evenodd" clip-rule="evenodd" d="M8 0C4.64074 0 2.37767 2.01228 1.06419 3.7187L1.04112 3.74921C0.743442 4.13544 0.470326 4.49042 0.285023 4.91014C0.0863256 5.36037 0 5.85079 0 6.51163C0 7.17247 0.0863256 7.66288 0.285023 8.11312C0.47107 8.53284 0.744186 8.88856 1.04112 9.27405L1.06493 9.30456C2.37767 11.011 4.64074 13.0233 8 13.0233C11.3593 13.0233 13.6223 11.011 14.9358 9.30456L14.9589 9.27405C15.2566 8.88856 15.5297 8.53284 15.715 8.11312C15.9137 7.66288 16 7.17247 16 6.51163C16 5.85079 15.9137 5.36037 15.715 4.91014C15.5289 4.49042 15.2558 4.13544 14.9589 3.74921L14.9351 3.7187C13.6223 2.01228 11.3593 0 8 0ZM1.94977 4.39963C3.1613 2.82419 5.13488 1.11628 8 1.11628C10.8651 1.11628 12.838 2.82419 14.0502 4.39963C14.3777 4.82381 14.5682 5.07684 14.694 5.36112C14.8115 5.62754 14.8837 5.95274 14.8837 6.51163C14.8837 7.07051 14.8115 7.39572 14.694 7.66214C14.5682 7.94642 14.3769 8.19944 14.051 8.62363C12.8372 10.1991 10.8651 11.907 8 11.907C5.13488 11.907 3.16205 10.1991 1.94977 8.62363C1.62233 8.19944 1.43181 7.94642 1.30605 7.66214C1.18847 7.39572 1.11628 7.07051 1.11628 6.51163C1.11628 5.95274 1.18847 5.62754 1.30605 5.36112C1.43181 5.07684 1.62381 4.82381 1.94977 4.39963Z" fill="black"/>
</svg>
