<svg width="25" height="20" viewBox="0 0 25 20" fill="none" xmlns="http://www.w3.org/2000/svg">
<path d="M19.3182 18.8889V15.5556H15.9091V13.3333H19.3182V10H21.5909V13.3333H25V15.5556H21.5909V18.8889H19.3182ZM2.27273 20C1.64773 20 1.11288 19.7826 0.668182 19.3478C0.223485 18.913 0.000757576 18.3896 0 17.7778V2.22222C0 1.61111 0.222727 1.08815 0.668182 0.653333C1.11364 0.218519 1.64848 0.000740741 2.27273 0H18.1818C18.8068 0 19.342 0.217778 19.7875 0.653333C20.233 1.08889 20.4553 1.61185 20.4545 2.22222V7.77778H18.1818V5.55556H2.27273V17.7778H17.0455V20H2.27273Z" fill="black"/>
</svg>
