<svg width="21" height="21" viewBox="0 0 21 21" fill="none" xmlns="http://www.w3.org/2000/svg">
<path d="M1.3125 0C0.964403 0 0.630564 0.138281 0.384422 0.384422C0.138281 0.630564 0 0.964403 0 1.3125L0 13.125C0 13.4731 0.138281 13.8069 0.384422 14.0531C0.630564 14.2992 0.964403 14.4375 1.3125 14.4375H7.875V15.75H2.625V18.375H10.5V11.8125H2.625V2.625H15.75V7.875H18.375V1.3125C18.375 0.964403 18.2367 0.630564 17.9906 0.384422C17.7444 0.138281 17.4106 0 17.0625 0L1.3125 0Z" fill="white"/>
<path d="M13.125 9.1875C12.7769 9.1875 12.4431 9.32578 12.1969 9.57192C11.9508 9.81806 11.8125 10.1519 11.8125 10.5V19.6875C11.8125 20.0356 11.9508 20.3694 12.1969 20.6156C12.4431 20.8617 12.7769 21 13.125 21H19.6875C20.0356 21 20.3694 20.8617 20.6156 20.6156C20.8617 20.3694 21 20.0356 21 19.6875V10.5C21 10.1519 20.8617 9.81806 20.6156 9.57192C20.3694 9.32578 20.0356 9.1875 19.6875 9.1875H13.125ZM14.4375 18.375V11.8125H18.375V18.375H14.4375Z" fill="white"/>
</svg>
