<svg width="11" height="13" viewBox="0 0 11 13" fill="none" xmlns="http://www.w3.org/2000/svg">
<path d="M8.84998 6.72946V2.62311C8.85001 2.57841 8.84192 2.53414 8.82616 2.49284C8.8104 2.45154 8.78728 2.41402 8.75813 2.38243L7.11527 0.599671C7.05661 0.53593 6.97702 0.500079 6.894 0.5H0.813124C0.730079 0.5 0.650434 0.535799 0.591712 0.599522C0.53299 0.663245 0.5 0.749671 0.5 0.839789V11.4865C0.5 11.5766 0.53299 11.663 0.591712 11.7268C0.650434 11.7905 0.730079 11.8263 0.813124 11.8263H5.71874" stroke="#FAFCFF" stroke-linecap="round" stroke-linejoin="round"/>
<path d="M6.76318 0.5V2.42547C6.76318 2.51559 6.79617 2.60201 6.8549 2.66574C6.91362 2.72946 6.99326 2.76526 7.07631 2.76526H8.85068M6.76318 10.1273H9.89443M9.89443 10.1273L8.32881 8.42841M9.89443 10.1273L8.32881 11.8263" stroke="#FAFCFF" stroke-linecap="round" stroke-linejoin="round"/>
</svg>
